<?xml version="1.0" encoding="UTF-8"?>
<svg version="1.1" xmlns="http://www.w3.org/2000/svg" width="640" height="480">
<path d="M0 0 C1.29682709 -0.0071553 2.59365417 -0.01431061 3.92977905 -0.02168274 C5.37541175 -0.02452317 6.8210447 -0.02723488 8.26667786 -0.02983093 C9.782691 -0.03609455 11.29870261 -0.04274125 12.81471252 -0.04974365 C16.94096021 -0.06716523 21.0671963 -0.07770902 25.19347167 -0.08594918 C27.77151361 -0.09109795 30.34955193 -0.0971738 32.92759132 -0.10346031 C40.9937667 -0.12251747 49.0599329 -0.13674628 57.12612647 -0.14507228 C66.43661722 -0.15484116 75.74687 -0.18114925 85.0572769 -0.22157317 C92.25312285 -0.25174338 99.44890063 -0.26654209 106.64480859 -0.26985329 C110.94259554 -0.27220317 115.24012843 -0.28115497 119.53784752 -0.30631447 C123.58362365 -0.32961551 127.62897882 -0.33382041 131.67480469 -0.32355309 C133.15704563 -0.32305807 134.63930742 -0.3293685 136.12148476 -0.34310913 C150.52965381 -0.46916988 150.52965381 -0.46916988 155.92219543 4.14717102 C161.36534446 10.53273743 160.48125013 17.96085734 160.42390442 25.98335266 C160.42769114 27.49187727 160.43319409 29.0003984 160.4402771 30.50891113 C160.4542019 34.59156271 160.44308362 38.67379146 160.42656589 42.75641942 C160.41268335 47.03506479 160.41917901 51.31368641 160.42269897 55.59234619 C160.42539828 62.77548512 160.41194863 69.95845668 160.38874817 77.14155579 C160.36213003 85.44012222 160.36039558 93.73840907 160.37213653 102.03700358 C160.38292364 110.02952141 160.37672058 118.02193834 160.36258125 126.01444817 C160.35683056 129.41184824 160.35689689 132.80917426 160.36164665 136.20657539 C160.3664266 140.20809017 160.35627287 144.20929958 160.334692 148.2107563 C160.32913816 149.67727122 160.32864595 151.14381557 160.33364487 152.61033249 C160.33962215 154.61566582 160.32522553 156.62102876 160.30987549 158.62631226 C160.30623065 160.30785196 160.30623065 160.30785196 160.30251217 162.02336216 C159.7264161 166.75524441 158.02714583 170.04222063 154.67219543 173.39717102 C147.2699555 178.10768734 139.24873277 177.43882946 130.7603302 177.42182922 C129.3240177 177.42618119 127.88770752 177.43136595 126.45140076 177.43731689 C122.56501209 177.45066546 118.67872092 177.45129025 114.79231381 177.4487536 C111.54189939 177.44768116 108.29150447 177.45257416 105.04109424 177.45735902 C97.37018008 177.46843967 89.69931489 177.4688996 82.02839661 177.46284485 C74.1275104 177.45680428 66.22680223 177.46912143 58.32594639 177.49041492 C51.52997124 177.50805393 44.73405265 177.51402869 37.93805546 177.51077718 C33.88461425 177.50896799 29.83130009 177.51156406 25.77787971 177.52549171 C21.96516464 177.53810315 18.15272642 177.53609486 14.34001541 177.52308083 C12.94528165 177.52072276 11.5505282 177.52342201 10.15581703 177.53170395 C-6.44385253 177.62312514 -6.44385253 177.62312514 -12.95280457 171.39717102 C-17.95818385 163.74188505 -17.37022593 155.85464553 -17.35246277 146.98530579 C-17.35681473 145.54899329 -17.36199949 144.11268311 -17.36795044 142.67637634 C-17.381299 138.78998768 -17.38192379 134.90369651 -17.37938714 131.0172894 C-17.3783147 127.76687498 -17.38320771 124.51648006 -17.38799256 121.26606983 C-17.39907322 113.59515567 -17.39953315 105.92429048 -17.39347839 98.25337219 C-17.38743783 90.35248598 -17.39975497 82.45177782 -17.42104846 74.55092198 C-17.43868748 67.75494682 -17.44466224 60.95902823 -17.44141072 54.16303104 C-17.43960153 50.10958983 -17.4421976 46.05627568 -17.45612526 42.0028553 C-17.4687367 38.19014023 -17.46672841 34.37770201 -17.45371437 30.564991 C-17.45135631 29.17025724 -17.45405555 27.77550378 -17.46233749 26.38079262 C-17.55339713 9.84677135 -17.55339713 9.84677135 -12.62588978 4.60167789 C-8.22470789 0.7977963 -5.69670679 0.02150431 0 0 Z " fill="#6B8B16" transform="translate(253.0778045654297,134.8528289794922)"/>
<path d="M0 0 C1.051875 0.00193359 1.051875 0.00193359 2.125 0.00390625 C7.72016523 0.1073289 12.07683176 1.12221361 17.1875 3.3125 C16.90538123 4.9391848 16.61147625 6.56382896 16.3125 8.1875 C16.15007812 9.09242188 15.98765625 9.99734375 15.8203125 10.9296875 C15.1875 13.3125 15.1875 13.3125 13.1875 15.3125 C11.26953125 15.0703125 11.26953125 15.0703125 9 14.4375 C3.80813607 13.16245156 -0.61574126 12.28734592 -5.625 14.625 C-8.03288518 16.29642208 -8.03288518 16.29642208 -9.8125 19.3125 C-10.03442711 22.16873074 -10.13698385 24.89544691 -10.125 27.75 C-10.14111328 28.51376953 -10.15722656 29.27753906 -10.17382812 30.06445312 C-10.1776822 34.49278414 -9.95179631 36.94127679 -6.8125 40.3125 C-6.8125 40.9725 -6.8125 41.6325 -6.8125 42.3125 C-0.70995476 44.26531448 4.53132177 43.4954509 10.29296875 41.06640625 C12.1875 40.3125 12.1875 40.3125 16.1875 39.3125 C16.1875 43.9325 16.1875 48.5525 16.1875 53.3125 C7.783488 57.60391038 -2.53459653 57.67800842 -11.66796875 55.69140625 C-17.35448385 53.48922743 -21.5385042 49.40941313 -24.8125 44.3125 C-28.5530624 35.80209293 -28.22640672 23.90236377 -25.97265625 14.9921875 C-22.90306638 8.2328886 -17.84629046 3.97045625 -11.046875 1.17578125 C-7.32322067 0.18190733 -3.82586382 -0.02914944 0 0 Z " fill="#F8F9F4" transform="translate(356.8125,198.6875)"/>
<path d="M0 0 C-0.4748935 4.11574371 -1.0210244 7.36383344 -3 11 C-4.16917969 10.89300781 -5.33835937 10.78601563 -6.54296875 10.67578125 C-8.09107688 10.55380909 -9.63925825 10.43276408 -11.1875 10.3125 C-11.95642578 10.23966797 -12.72535156 10.16683594 -13.51757812 10.09179688 C-18.24743711 9.74669987 -21.15347025 9.85555529 -25 13 C-26.67533975 16.35067949 -26.26881948 20.06918792 -26.3125 23.75 C-26.35600586 24.94882813 -26.35600586 24.94882813 -26.40039062 26.171875 C-26.45849447 31.6068193 -25.64217141 34.70237288 -22 39 C-18.21426132 40.89286934 -13.7707211 40.5409663 -9.80078125 39.328125 C-7.86089559 38.56794799 -5.9299483 37.78506371 -4 37 C-3.01 37 -2.02 37 -1 37 C-1 40.96 -1 44.92 -1 49 C-8.65121317 54.20933663 -17.05735814 54.01784283 -26 53 C-32.95499553 51.42074538 -38.20664309 45.84612113 -42 40 C-43.40549814 34.69208523 -43.29032681 29.09026958 -43.375 23.625 C-43.41238281 22.7175 -43.44976562 21.81 -43.48828125 20.875 C-43.58857152 13.14150607 -41.24655675 8.70422114 -36.2265625 2.9765625 C-35.69804687 2.53054687 -35.16953125 2.08453125 -34.625 1.625 C-34.10164063 1.16351563 -33.57828125 0.70203125 -33.0390625 0.2265625 C-23.38144914 -5.58280646 -9.96147092 -4.19430355 0 0 Z " fill="#F8FAF5" transform="translate(322,202)"/>
<path d="M0 0 C0 4.62 0 9.24 0 14 C-0.66 14 -1.32 14 -2 14 C-2.07347656 12.82630859 -2.07347656 12.82630859 -2.1484375 11.62890625 C-2.22320312 10.61699219 -2.29796875 9.60507813 -2.375 8.5625 C-2.44460938 7.55316406 -2.51421875 6.54382813 -2.5859375 5.50390625 C-2.72257812 4.67761719 -2.85921875 3.85132813 -3 3 C-3.66 2.67 -4.32 2.34 -5 2 C-2 0 -2 0 0 0 Z " fill="#D2DCBA" transform="translate(373,238)"/>
<path d="M0 0 C0.66 0.33 1.32 0.66 2 1 C0.73548068 2.31858428 -0.53685475 3.62967631 -1.8125 4.9375 C-2.52019531 5.66839844 -3.22789062 6.39929688 -3.95703125 7.15234375 C-6 9 -6 9 -9 10 C-7.61811547 6.78956118 -6.07578097 4.95063635 -3.375 2.75 C-2.74335938 2.22921875 -2.11171875 1.7084375 -1.4609375 1.171875 C-0.73777344 0.59179688 -0.73777344 0.59179688 0 0 Z " fill="#DFE6CD" transform="translate(291,201)"/>
<path d="M0 0 C0.66 0.33 1.32 0.66 2 1 C1.0479279 2.00596297 0.08812654 3.00461563 -0.875 4 C-1.40867187 4.556875 -1.94234375 5.11375 -2.4921875 5.6875 C-4 7 -4 7 -6 7 C-4.60667426 3.63279613 -3.0210714 2.0140476 0 0 Z " fill="#DBE3C7" transform="translate(341,202)"/>
<path d="M0 0 C0.66 0 1.32 0 2 0 C0.79618552 2.49361571 -0.45428722 4.68143083 -2 7 C-2.66 7 -3.32 7 -4 7 C-2.92598892 4.08482708 -2.22189824 2.22189824 0 0 Z " fill="#90A851" transform="translate(299,212)"/>
</svg>
